<svg version="1.1" id="Layer_1" xmlns="http://www.w3.org/2000/svg" xmlns:xlink="http://www.w3.org/1999/xlink" x="0px" y="0px"
	 width="100%" viewBox="0 0 608 496" enable-background="new 0 0 608 496" xml:space="preserve">
<path fill="#000000" opacity="1.000000" stroke="none" 
	d="
M447.000000,472.241821 
	C381.340424,472.254608 316.180878,472.269379 251.021301,472.275543 
	C242.703293,472.276337 242.644363,472.203705 242.633514,463.888367 
	C242.625916,458.055664 242.674271,452.222809 242.639191,446.390320 
	C242.576141,435.901733 232.926086,425.964386 222.664429,425.773987 
	C213.118622,425.596863 203.658875,435.365387 203.420593,445.849365 
	C203.265396,452.678436 203.129700,459.526306 203.467133,466.341888 
	C203.702850,471.103027 201.763870,472.566162 197.323486,472.323090 
	C192.837250,472.077515 188.327133,472.293976 183.827957,472.253265 
	C177.967621,472.200226 176.992279,471.201935 176.954575,465.140106 
	C176.916214,458.974579 177.136810,452.801758 176.910385,446.644409 
	C176.591370,437.969421 173.085571,430.872894 165.568192,426.136658 
	C158.508942,421.689026 151.172470,421.194946 143.809799,425.286835 
	C136.294037,429.463806 131.888474,435.895447 131.427246,444.544128 
	C131.081589,451.025970 131.304672,457.538879 131.298706,464.037933 
	C131.291306,472.117615 131.149384,472.276306 123.321861,472.282410 
	C120.988785,472.284241 118.655693,472.276245 116.322624,472.279480 
	C104.901329,472.295441 105.707275,473.228546 105.618538,461.351410 
	C105.575172,455.547241 106.100891,449.734924 104.729752,443.947021 
	C102.360016,433.943726 94.692284,427.321136 85.038551,427.347778 
	C75.793968,427.373291 67.655205,434.521545 65.344231,444.051727 
	C63.539192,451.495453 64.613129,458.968323 64.463547,466.417877 
	C64.378059,470.675354 62.987167,472.478455 58.625702,472.342773 
	C51.799526,472.130341 44.962219,472.286346 38.129696,472.264435 
	C31.071482,472.241791 30.001287,471.213684 30.000957,464.213013 
	C29.999943,442.715485 30.037304,421.217926 30.054321,399.720398 
	C30.057751,395.387634 30.287586,391.036011 29.962208,386.727112 
	C29.587425,381.763916 31.306396,378.302765 35.287594,375.210571 
	C63.666313,353.168945 95.622360,339.805847 131.133957,334.497498 
	C142.356827,332.819916 153.684738,331.729034 164.875870,332.012451 
	C183.630997,332.487366 202.175247,335.536224 220.076340,341.639587 
	C228.280823,344.436890 236.356506,347.532745 244.216583,351.195618 
	C249.167572,353.502869 250.370941,352.847046 250.510086,347.217529 
	C250.711807,339.056702 250.500824,330.886414 250.634064,322.722870 
	C250.694321,319.030029 248.606461,318.201691 245.560699,318.190918 
	C238.228394,318.165039 230.896103,318.082397 223.563950,318.098328 
	C219.779755,318.106537 216.208511,318.093109 214.595840,313.587738 
	C212.926895,308.925171 213.853088,305.105530 217.545502,301.888062 
	C231.505325,289.723877 244.030334,276.085815 257.287903,263.200256 
	C293.125458,228.368347 328.969513,193.543137 364.798431,158.702332 
	C367.425812,156.147400 369.919067,153.454956 372.531891,150.884583 
	C380.837463,142.713791 385.974152,142.683533 394.171021,150.787735 
	C405.307922,161.798752 416.312744,172.945557 427.564423,183.837662 
	C436.649872,192.632751 446.016571,201.137299 455.259583,209.769638 
	C455.989746,210.451569 456.732788,211.114502 458.412842,210.951874 
	C459.610657,206.026520 458.812439,200.899414 458.848633,195.856689 
	C458.955780,180.930908 458.887787,180.935303 473.825317,180.917282 
	C481.657745,180.907822 489.490234,180.847443 497.322571,180.865189 
	C505.640778,180.884033 507.279907,182.541565 507.274994,190.782349 
	C507.262207,212.279938 507.319183,233.778091 507.157806,255.274582 
	C507.129211,259.083710 508.314240,261.802277 511.018005,264.470795 
	C532.482788,285.655609 553.815979,306.973724 575.193909,328.246460 
	C577.331848,330.373871 579.304932,332.427582 579.396484,335.845062 
	C579.599731,343.432220 577.909790,345.378876 570.400452,345.387054 
	C563.401184,345.394714 556.393188,345.175598 549.406067,345.466339 
	C545.377075,345.634003 542.387695,344.409973 539.784851,341.406708 
	C537.073669,338.278473 533.771729,335.799194 530.505615,333.658264 
	C527.876648,334.993134 528.391724,337.022919 528.390015,338.750702 
	C528.355591,374.413391 528.420105,410.076324 528.289856,445.738586 
	C528.272156,450.575226 530.555115,451.678223 534.743958,451.662262 
	C554.574768,451.586700 574.406128,451.625732 594.237244,451.656799 
	C601.377319,451.667999 602.205139,452.551819 602.231018,459.778015 
	C602.275696,472.263336 602.275696,472.258545 589.976196,472.256744 
	C542.484131,472.249756 494.992065,472.246124 447.000000,472.241821 
M499.924927,357.500031 
	C499.923157,341.169037 499.855286,324.837585 499.970978,308.507416 
	C499.996460,304.907806 498.924622,302.210663 496.256714,299.720123 
	C488.098663,292.104462 480.108368,284.307587 472.115723,276.516602 
	C444.202515,249.307709 416.257141,222.131104 388.490692,194.773041 
	C384.892090,191.227386 382.453918,191.329834 379.037415,194.715164 
	C368.152588,205.500595 357.073944,216.090149 346.088013,226.773758 
	C322.448273,249.763000 298.839386,272.784088 275.158081,295.730408 
	C272.601227,298.207947 271.308685,300.848511 271.314941,304.499084 
	C271.395050,351.159424 271.356262,397.820007 271.376099,444.480499 
	C271.378876,451.045013 271.980621,451.623535 278.503876,451.624695 
	C349.994476,451.637451 421.485107,451.639496 492.975708,451.628601 
	C499.629578,451.627594 499.957703,451.285492 499.959167,444.487457 
	C499.965302,415.824982 499.943634,387.162476 499.924927,357.500031 
M109.170471,362.758942 
	C92.455971,368.011810 76.417282,374.646393 61.729954,385.060883 
	C64.377144,387.096436 66.619896,386.610260 68.734886,386.613739 
	C87.901268,386.645294 107.067734,386.624573 126.234169,386.625702 
	C165.733841,386.628021 205.233536,386.644531 244.733185,386.611816 
	C246.929611,386.609985 249.695404,387.356842 250.429672,384.059967 
	C250.996582,381.514587 249.587921,380.107391 247.451721,378.949463 
	C220.674805,364.434540 192.168686,356.134521 161.648849,355.467560 
	C144.083160,355.083710 126.916290,358.249786 109.170471,362.758942 
z"/>
<path fill="#000000" opacity="1.000000" stroke="none" 
	d="
M422.923065,304.884155 
	C422.917542,305.524811 422.918335,305.691315 422.915558,305.857727 
	C422.719543,317.574066 421.985291,318.305511 410.414185,318.302887 
	C405.420532,318.301758 400.426849,318.297150 395.433197,318.295532 
	C390.954956,318.294098 388.648376,316.123718 388.651703,311.577698 
	C388.656952,304.420074 388.673157,297.262054 388.605560,290.104980 
	C388.564362,285.740082 390.686554,283.651520 394.984406,283.647156 
	C402.142090,283.639923 409.299927,283.609314 416.457428,283.643494 
	C420.260468,283.661682 422.306366,285.604645 422.436279,289.453339 
	C422.604553,294.438721 422.764282,299.424377 422.923065,304.884155 
z"/>
<path fill="#000000" opacity="1.000000" stroke="none" 
	d="
M415.577637,362.165039 
	C407.970062,361.976166 400.816315,362.363739 393.660126,361.500641 
	C390.056396,361.065979 388.649445,359.482880 388.657227,356.089050 
	C388.674042,348.756165 388.734619,341.421692 388.605682,334.090881 
	C388.535828,330.121307 390.492981,328.022095 394.202362,327.921326 
	C401.862183,327.713226 409.533600,327.687561 417.194031,327.861664 
	C420.445892,327.935608 422.325287,329.938171 422.393036,333.376099 
	C422.534180,340.537079 422.684021,347.698029 422.877167,354.857727 
	C423.004761,359.587921 420.733826,361.994995 415.577637,362.165039 
z"/>
<path fill="#000000" opacity="1.000000" stroke="none" 
	d="
M380.395691,297.036804 
	C380.396393,302.528687 380.364655,307.526428 380.390259,312.523926 
	C380.410492,316.472137 378.436371,318.325104 374.550262,318.318787 
	C367.220215,318.306885 359.889862,318.276794 352.560211,318.329834 
	C348.659424,318.358032 346.565857,316.487885 346.537537,312.637268 
	C346.478851,304.655151 346.503113,296.670990 346.623535,288.689606 
	C346.676636,285.168457 349.566620,284.207275 352.190918,284.111389 
	C359.839783,283.832001 367.509552,283.798889 375.159882,284.034485 
	C378.607361,284.140656 380.529602,286.351959 380.380005,290.046631 
	C380.292450,292.208313 380.379456,294.377014 380.395691,297.036804 
z"/>
<path fill="#000000" opacity="1.000000" stroke="none" 
	d="
M349.769531,328.365173 
	C358.457794,327.271027 366.762177,327.792877 375.050568,327.826294 
	C378.535828,327.840363 380.418640,329.954285 380.385925,333.652313 
	C380.319794,341.125244 380.269958,348.601135 380.413452,356.071960 
	C380.485168,359.806763 378.775513,361.870667 375.234833,361.952393 
	C367.269684,362.136292 359.296143,362.129913 351.329651,361.991425 
	C348.244537,361.937775 346.531799,360.179749 346.567749,356.848572 
	C346.651917,349.050293 346.617371,341.250763 346.627625,333.451721 
	C346.630432,331.307465 347.306183,329.543732 349.769531,328.365173 
z"/>
</svg>